<svg id="visual" viewBox="0 0 900 600" width="900" height="600" xmlns="http://www.w3.org/2000/svg" xmlns:xlink="http://www.w3.org/1999/xlink" version="1.1"><rect x="0" y="0" width="900" height="600" fill="#001220"></rect><path d="M0 362L21.5 359C43 356 86 350 128.8 351.3C171.7 352.7 214.3 361.3 257.2 348C300 334.7 343 299.3 385.8 296C428.7 292.7 471.3 321.3 514.2 335.5C557 349.7 600 349.3 642.8 333.2C685.7 317 728.3 285 771.2 272.7C814 260.3 857 267.7 878.5 271.3L900 275L900 601L878.5 601C857 601 814 601 771.2 601C728.3 601 685.7 601 642.8 601C600 601 557 601 514.2 601C471.3 601 428.7 601 385.8 601C343 601 300 601 257.2 601C214.3 601 171.7 601 128.8 601C86 601 43 601 21.5 601L0 601Z" fill="#1a75c6"></path><path d="M0 340L21.5 345.7C43 351.3 86 362.7 128.8 372.5C171.7 382.3 214.3 390.7 257.2 389.2C300 387.7 343 376.3 385.8 372.8C428.7 369.3 471.3 373.7 514.2 379.2C557 384.7 600 391.3 642.8 397C685.7 402.7 728.3 407.3 771.2 412.3C814 417.3 857 422.7 878.5 425.3L900 428L900 601L878.5 601C857 601 814 601 771.2 601C728.3 601 685.7 601 642.8 601C600 601 557 601 514.2 601C471.3 601 428.7 601 385.8 601C343 601 300 601 257.2 601C214.3 601 171.7 601 128.8 601C86 601 43 601 21.5 601L0 601Z" fill="#0064e4"></path><path d="M0 407L21.5 413C43 419 86 431 128.8 435.8C171.7 440.7 214.3 438.3 257.2 433.5C300 428.7 343 421.3 385.8 418.3C428.7 415.3 471.3 416.7 514.2 420.8C557 425 600 432 642.8 439C685.7 446 728.3 453 771.2 455.8C814 458.7 857 457.3 878.5 456.7L900 456L900 601L878.5 601C857 601 814 601 771.2 601C728.3 601 685.7 601 642.8 601C600 601 557 601 514.2 601C471.3 601 428.7 601 385.8 601C343 601 300 601 257.2 601C214.3 601 171.7 601 128.8 601C86 601 43 601 21.5 601L0 601Z" fill="#0048f7"></path><path d="M0 520L21.5 512.5C43 505 86 490 128.8 486.2C171.7 482.3 214.3 489.7 257.2 500C300 510.3 343 523.7 385.8 524.8C428.7 526 471.3 515 514.2 513.2C557 511.3 600 518.7 642.8 516.3C685.7 514 728.3 502 771.2 496C814 490 857 490 878.5 490L900 490L900 601L878.5 601C857 601 814 601 771.2 601C728.3 601 685.7 601 642.8 601C600 601 557 601 514.2 601C471.3 601 428.7 601 385.8 601C343 601 300 601 257.2 601C214.3 601 171.7 601 128.8 601C86 601 43 601 21.5 601L0 601Z" fill="#2300ff"></path></svg>